<svg width="59" height="59" viewBox="0 0 59 59" fill="none" xmlns="http://www.w3.org/2000/svg">
<g filter="url(#filter0_bii_45_85)">
<path d="M59 29.5C59 45.7924 45.7924 59 29.5 59C13.2076 59 0 45.7924 0 29.5C0 13.2076 13.2076 0 29.5 0C45.7924 0 59 13.2076 59 29.5Z" fill="#D9D9D9" fill-opacity="0.3"/>
</g>
<g filter="url(#filter1_f_45_85)">
<path d="M22.9375 5C21.3184 5 12.0292 8.0713 6.69986 16.0459C6.69986 17.7522 4.47931 21.1648 7.94891 19.683C7.94891 19.683 10.0307 13.6212 18.0801 9.44531C20.5784 9.71472 18.3576 21.03 22.2436 23.4548C23.215 24.5324 26.4071 24.6671 30.987 17.5277C30.987 14.2947 31.6808 6.61648 22.9375 5Z" fill="white"/>
</g>
<defs>
<filter id="filter0_bii_45_85" x="-31" y="-31" width="121" height="121" filterUnits="userSpaceOnUse" color-interpolation-filters="sRGB">
<feFlood flood-opacity="0" result="BackgroundImageFix"/>
<feGaussianBlur in="BackgroundImageFix" stdDeviation="15.5"/>
<feComposite in2="SourceAlpha" operator="in" result="effect1_backgroundBlur_45_85"/>
<feBlend mode="normal" in="SourceGraphic" in2="effect1_backgroundBlur_45_85" result="shape"/>
<feColorMatrix in="SourceAlpha" type="matrix" values="0 0 0 0 0 0 0 0 0 0 0 0 0 0 0 0 0 0 127 0" result="hardAlpha"/>
<feOffset dx="-4" dy="-3"/>
<feGaussianBlur stdDeviation="3"/>
<feComposite in2="hardAlpha" operator="arithmetic" k2="-1" k3="1"/>
<feColorMatrix type="matrix" values="0 0 0 0 1 0 0 0 0 0.95 0 0 0 0 0.95 0 0 0 1 0"/>
<feBlend mode="normal" in2="shape" result="effect2_innerShadow_45_85"/>
<feColorMatrix in="SourceAlpha" type="matrix" values="0 0 0 0 0 0 0 0 0 0 0 0 0 0 0 0 0 0 127 0" result="hardAlpha"/>
<feOffset dy="4"/>
<feGaussianBlur stdDeviation="3.5"/>
<feComposite in2="hardAlpha" operator="arithmetic" k2="-1" k3="1"/>
<feColorMatrix type="matrix" values="0 0 0 0 0 0 0 0 0 0 0 0 0 0 0 0 0 0 0.25 0"/>
<feBlend mode="normal" in2="effect2_innerShadow_45_85" result="effect3_innerShadow_45_85"/>
</filter>
<filter id="filter1_f_45_85" x="1" y="0" width="35" height="29" filterUnits="userSpaceOnUse" color-interpolation-filters="sRGB">
<feFlood flood-opacity="0" result="BackgroundImageFix"/>
<feBlend mode="normal" in="SourceGraphic" in2="BackgroundImageFix" result="shape"/>
<feGaussianBlur stdDeviation="2.5" result="effect1_foregroundBlur_45_85"/>
</filter>
</defs>
</svg>
